<svg id="visual" viewBox="0 0 960 540" width="960" height="540" xmlns="http://www.w3.org/2000/svg" xmlns:xlink="http://www.w3.org/1999/xlink" version="1.1"><rect x="0" y="0" width="960" height="540" fill="#253023"></rect><path d="M0 437L13.3 427.7C26.7 418.3 53.3 399.7 80 400.3C106.7 401 133.3 421 160 436.3C186.7 451.7 213.3 462.3 240 467.8C266.7 473.3 293.3 473.7 320 466C346.7 458.3 373.3 442.7 400 443.2C426.7 443.7 453.3 460.3 480 471.8C506.7 483.3 533.3 489.7 560 480.8C586.7 472 613.3 448 640 434.7C666.7 421.3 693.3 418.7 720 422.8C746.7 427 773.3 438 800 445.7C826.7 453.3 853.3 457.7 880 458C906.7 458.3 933.3 454.7 946.7 452.8L960 451L960 541L946.7 541C933.3 541 906.7 541 880 541C853.3 541 826.7 541 800 541C773.3 541 746.7 541 720 541C693.3 541 666.7 541 640 541C613.3 541 586.7 541 560 541C533.3 541 506.7 541 480 541C453.3 541 426.7 541 400 541C373.3 541 346.7 541 320 541C293.3 541 266.7 541 240 541C213.3 541 186.7 541 160 541C133.3 541 106.7 541 80 541C53.3 541 26.7 541 13.3 541L0 541Z" fill="#0e160d" stroke-linecap="round" stroke-linejoin="miter"></path></svg>